<?xml version="1.0" encoding="utf-8"?>
<!-- Generator: Adobe Illustrator 19.0.0, SVG Export Plug-In . SVG Version: 6.00 Build 0)  -->
<svg version="1.1" id="Capa_1" xmlns="http://www.w3.org/2000/svg" xmlns:xlink="http://www.w3.org/1999/xlink" x="0px" y="0px"
	 viewBox="0 0 414.5 163.5" style="enable-background:new 0 0 414.5 163.5;" xml:space="preserve">
<style type="text/css">
	.st0{display:none;fill:#3E02B2;}
	.st1{display:none;fill:#47DDFF;}
	.st2{display:none;fill:#A0F818;}
	.st3{fill:#3E02B2;}
	.st4{clip-path:url(#SVGID_2_);fill:#3E02B2;}
	.st5{clip-path:url(#SVGID_2_);fill:#A0F818;}
	.st6{clip-path:url(#SVGID_2_);fill:#47DDFF;}
	.st7{clip-path:url(#SVGID_2_);fill:#FFFFFF;}
</style>
<rect x="-50.2" y="-103.9" class="st0" width="500" height="360.9"/>
<rect x="449.8" y="-103.9" class="st1" width="500" height="360.9"/>
<rect x="949.8" y="-103.9" class="st2" width="500" height="360.9"/>
<polygon class="st3" points="-322,83.6 -322,92 -342.1,92 -342.1,102.5 -325.6,102.5 -325.6,110.4 -342.1,110.4 -342.1,128.7 
	-351.7,128.7 -351.7,83.6 "/>
<g>
	<defs>
		<rect id="SVGID_1_" x="-550.2" y="-103.9" width="2000" height="360.9"/>
	</defs>
	<clipPath id="SVGID_2_">
		<use xlink:href="#SVGID_1_"  style="overflow:visible;"/>
	</clipPath>
	<path class="st4" d="M-307.1,86.9c0,1.5-0.5,2.7-1.5,3.7c-1,1-2.2,1.5-3.7,1.5s-2.8-0.5-3.8-1.5c-1-1-1.5-2.2-1.5-3.7
		c0-1.5,0.5-2.7,1.5-3.6c1-1,2.3-1.4,3.8-1.4s2.7,0.5,3.7,1.4C-307.6,84.3-307.1,85.5-307.1,86.9 M-307.8,128.7h-9.1V95.6h9.1V128.7
		z"/>
	<path class="st4" d="M-269.4,110.8v18h-9.1v-17.5c0-5.7-2.2-8.6-6.7-8.6c-2.4,0-4.2,0.8-5.5,2.4c-1.3,1.6-1.9,3.8-1.9,6.7v16.9
		h-9.1V95.6h7.9l0.8,4.1c1.2-1.4,2.6-2.5,4.2-3.3c1.6-0.8,3.6-1.2,6.1-1.2c3.9,0,7,1.2,9.5,3.6
		C-270.6,101.2-269.4,105.2-269.4,110.8"/>
	<path class="st4" d="M-230.5,128.7h-4.6c-4.2,0-6.2-1.8-6.1-5.4c-1.2,1.9-2.7,3.3-4.4,4.3c-1.8,1-3.9,1.5-6.4,1.5
		c-3.7,0-6.7-0.8-8.9-2.5c-2.3-1.7-3.4-4.1-3.4-7.2c0-3.5,1.3-6.2,3.9-8.1c2.6-1.9,6.4-2.9,11.3-2.9h6.6v-1.6c0-1.5-0.6-2.7-1.7-3.6
		s-2.6-1.3-4.5-1.3c-1.7,0-3,0.4-4.1,1.1c-1.1,0.7-1.7,1.7-1.9,3h-8.8c0.3-3.4,1.8-6,4.5-7.9c2.7-1.9,6.3-2.8,10.8-2.8
		c4.7,0,8.3,1,10.9,3.1c2.6,2.1,3.8,5,3.8,9v11.7c0,0.8,0.2,1.4,0.5,1.7c0.3,0.3,0.9,0.4,1.6,0.4h1V128.7z M-249.3,114.4
		c-1.9,0-3.4,0.4-4.4,1.1c-1.1,0.8-1.6,1.8-1.6,3.2c0,1.2,0.4,2.1,1.3,2.8c0.9,0.7,2.1,1,3.6,1c2.4,0,4.2-0.7,5.6-2
		c1.4-1.4,2.1-3.2,2.1-5.4v-0.6H-249.3z"/>
	<path class="st4" d="M-193.6,110.8v18h-9.1v-17.5c0-5.7-2.2-8.6-6.7-8.6c-2.4,0-4.2,0.8-5.5,2.4c-1.3,1.6-1.9,3.8-1.9,6.7v16.9
		h-9.1V95.6h7.9l0.8,4.1c1.2-1.4,2.6-2.5,4.2-3.3c1.6-0.8,3.6-1.2,6.1-1.2c3.9,0,7,1.2,9.5,3.6
		C-194.8,101.2-193.6,105.2-193.6,110.8"/>
	<path class="st4" d="M-172.2,129.1c-3.4,0-6.4-0.7-9-2.1c-2.6-1.4-4.6-3.4-6-6c-1.4-2.6-2.1-5.5-2.1-8.9c0-3.4,0.7-6.4,2.1-8.9
		c1.4-2.6,3.4-4.5,6-5.9c2.6-1.4,5.6-2.1,9-2.1c4.4,0,8,1.1,10.8,3.4c2.8,2.3,4.5,5.4,5.2,9.4h-9.4c-0.4-1.6-1.2-2.9-2.3-3.9
		c-1.2-1-2.6-1.4-4.3-1.4c-2.4,0-4.3,0.9-5.7,2.6c-1.4,1.8-2.1,4.1-2.1,6.9s0.7,5.1,2.1,6.9c1.4,1.8,3.3,2.6,5.7,2.6
		c1.8,0,3.2-0.5,4.4-1.5c1.2-1,1.9-2.3,2.3-4.1h9.3c-0.6,4-2.3,7.2-5.1,9.5C-164.1,128-167.7,129.1-172.2,129.1"/>
	<path class="st4" d="M-143.9,97.3c2.5-1.4,5.4-2.1,8.7-2.1c3.3,0,6.3,0.7,8.9,2c2.6,1.3,4.6,3.2,6,5.5c1.4,2.4,2.2,5.2,2.2,8.4
		c0,1.2-0.1,2.2-0.3,3.1h-24v0.3c0.2,2.4,1,4.3,2.3,5.7c1.3,1.4,3.2,2.1,5.5,2.1c1.8,0,3.4-0.4,4.6-1.2c1.2-0.8,2-2,2.4-3.5h9
		c-0.3,2.2-1.2,4.2-2.5,5.9c-1.3,1.8-3.1,3.1-5.3,4.2c-2.2,1-4.7,1.5-7.5,1.5c-3.7,0-6.9-0.7-9.6-2.1c-2.7-1.4-4.7-3.3-6.2-5.9
		c-1.4-2.6-2.2-5.5-2.2-8.9c0-3.4,0.7-6.4,2.1-9C-148.3,100.7-146.4,98.7-143.9,97.3 M-129.6,103.6c-1.4-1.1-3.1-1.6-5.1-1.6
		c-2,0-3.6,0.6-5,1.7c-1.4,1.1-2.2,2.7-2.4,4.6h15C-127.5,106.3-128.3,104.7-129.6,103.6"/>
	<polygon class="st4" points="-345.6,28.8 -334.8,62.1 -323.7,28.8 -313.7,28.8 -329,73.9 -340.5,73.9 -355.8,28.8 	"/>
	<path class="st4" d="M-281.7,73.9h-4.6c-4.2,0-6.2-1.8-6.1-5.4c-1.2,1.9-2.7,3.3-4.4,4.3c-1.8,1-3.9,1.5-6.4,1.5
		c-3.7,0-6.7-0.8-8.9-2.5c-2.3-1.7-3.4-4.1-3.4-7.2c0-3.5,1.3-6.2,3.9-8.1c2.6-1.9,6.4-2.9,11.3-2.9h6.6v-1.6c0-1.5-0.6-2.7-1.7-3.6
		s-2.6-1.3-4.5-1.3c-1.7,0-3,0.4-4.1,1.1c-1.1,0.7-1.7,1.7-1.9,3h-8.8c0.3-3.4,1.8-6,4.5-7.9c2.7-1.9,6.3-2.8,10.8-2.8
		c4.7,0,8.3,1,10.9,3.1c2.6,2.1,3.8,5,3.8,9v11.7c0,0.8,0.2,1.4,0.5,1.7c0.3,0.3,0.9,0.4,1.6,0.4h1V73.9z M-300.4,59.6
		c-1.9,0-3.4,0.4-4.4,1.1c-1.1,0.8-1.6,1.8-1.6,3.2c0,1.2,0.4,2.1,1.3,2.8c0.9,0.7,2.1,1,3.6,1c2.4,0,4.2-0.7,5.6-2
		c1.4-1.4,2.1-3.2,2.1-5.4v-0.6H-300.4z"/>
	<rect x="-276.8" y="28.8" class="st4" width="9.1" height="45.1"/>
	<path class="st4" d="M-230.3,73.9h-8.1l-0.8-4c-1.2,1.4-2.5,2.4-4.1,3.2c-1.5,0.8-3.4,1.2-5.7,1.2c-3.9,0-7-1.2-9.5-3.6
		c-2.4-2.4-3.7-6.4-3.7-11.9v-18h9.1v16.9c0,3,0.5,5.3,1.6,6.8s2.7,2.3,4.9,2.3c2.3,0,4-0.8,5.3-2.5c1.2-1.7,1.9-4.1,1.9-7.1V40.8
		h9.1V73.9z"/>
	<path class="st4" d="M-216.7,42.5c2.5-1.4,5.4-2.1,8.7-2.1c3.3,0,6.3,0.7,8.9,2c2.6,1.3,4.6,3.2,6,5.5c1.4,2.4,2.2,5.2,2.2,8.4
		c0,1.2-0.1,2.2-0.3,3.1h-24v0.3c0.2,2.4,1,4.3,2.3,5.7c1.3,1.4,3.2,2.1,5.5,2.1c1.8,0,3.4-0.4,4.6-1.2c1.2-0.8,2-2,2.4-3.5h9
		c-0.3,2.2-1.2,4.2-2.5,5.9c-1.3,1.8-3.1,3.1-5.3,4.2c-2.2,1-4.7,1.5-7.5,1.5c-3.7,0-6.9-0.7-9.6-2.1c-2.7-1.4-4.7-3.3-6.2-5.9
		c-1.4-2.6-2.2-5.5-2.2-8.9c0-3.4,0.7-6.4,2.1-9C-221.1,45.8-219.2,43.9-216.7,42.5 M-202.5,48.8c-1.4-1.1-3.1-1.6-5.1-1.6
		c-2,0-3.6,0.6-5,1.7c-1.4,1.1-2.2,2.7-2.4,4.6h15C-200.3,51.4-201.1,49.9-202.5,48.8"/>
	<path class="st4" d="M-133.4,55.7v18.2h-9.1V55.4c0-5-1.9-7.5-5.7-7.5c-2,0-3.6,0.7-4.8,2.1c-1.2,1.4-1.8,3.3-1.8,5.8v18.2h-9.1
		V55.4c0-5-1.9-7.5-5.8-7.5c-2,0-3.6,0.7-4.7,2.2c-1.2,1.4-1.8,3.4-1.8,5.8v18.1h-9.1V40.8h7.9l0.8,4.1c1.1-1.4,2.4-2.5,4-3.3
		c1.5-0.8,3.5-1.2,5.8-1.2c4.7,0,8,1.9,9.9,5.6c1.2-1.8,2.8-3.2,4.7-4.2c2-1,4.2-1.4,6.7-1.4c3.6,0,6.5,1.2,8.7,3.5
		C-134.6,46.3-133.4,50.2-133.4,55.7"/>
	<path class="st4" d="M-389.2,125.6l-54.3,6.9c-16.3,2.1-31.2-9.5-33.2-25.8L-482,66c-2.1-16.3,9.5-31.2,25.8-33.2l54.3-6.9
		c16.3-2.1,31.2,9.5,33.2,25.8l5.2,40.7C-361.4,108.6-372.9,123.5-389.2,125.6"/>
	<path class="st5" d="M-408.5,69.9l-18.2,31.4c-3.3,5.6-11.1,6.3-15.3,1.3l-20.2-24.3c-1.6-1.9-0.4-4.9,2.1-5.1l11.2-1.1l13.7,16.8
		l18.1-32.1l27.4-2.6c3.4-0.3,6.4,2.2,6.8,5.6l0.1,1.1L-408.5,69.9z"/>
	<polygon class="st6" points="-401.9,104.5 -421.2,106.4 -416.8,97.8 -405.3,77.6 -382.5,68.7 -388.8,86.6 -403.5,88 	"/>
	<polygon class="st7" points="178,83.6 178,92 157.9,92 157.9,102.5 174.4,102.5 174.4,110.4 157.9,110.4 157.9,128.7 148.3,128.7 
		148.3,83.6 	"/>
	<path class="st7" d="M192.9,86.9c0,1.5-0.5,2.7-1.5,3.7c-1,1-2.2,1.5-3.7,1.5s-2.8-0.5-3.8-1.5c-1-1-1.5-2.2-1.5-3.7
		c0-1.5,0.5-2.7,1.5-3.6c1-1,2.3-1.4,3.8-1.4s2.7,0.5,3.7,1.4C192.4,84.3,192.9,85.5,192.9,86.9 M192.2,128.7h-9.1V95.6h9.1V128.7z"
		/>
	<path class="st7" d="M230.6,110.8v18h-9.1v-17.5c0-5.7-2.2-8.6-6.7-8.6c-2.4,0-4.2,0.8-5.5,2.4c-1.3,1.6-1.9,3.8-1.9,6.7v16.9h-9.1
		V95.6h7.9l0.8,4.1c1.2-1.4,2.6-2.5,4.2-3.3c1.6-0.8,3.6-1.2,6.1-1.2c3.9,0,7,1.2,9.5,3.6C229.4,101.2,230.6,105.2,230.6,110.8"/>
	<path class="st7" d="M269.5,128.7h-4.6c-4.2,0-6.2-1.8-6.1-5.4c-1.2,1.9-2.7,3.3-4.4,4.3c-1.8,1-3.9,1.5-6.4,1.5
		c-3.7,0-6.7-0.8-8.9-2.5c-2.3-1.7-3.4-4.1-3.4-7.2c0-3.5,1.3-6.2,3.9-8.1c2.6-1.9,6.4-2.9,11.3-2.9h6.6v-1.6c0-1.5-0.6-2.7-1.7-3.6
		c-1.1-0.9-2.6-1.3-4.5-1.3c-1.7,0-3,0.4-4.1,1.1c-1.1,0.7-1.7,1.7-1.9,3h-8.8c0.3-3.4,1.8-6,4.5-7.9c2.7-1.9,6.3-2.8,10.8-2.8
		c4.7,0,8.3,1,10.9,3.1c2.6,2.1,3.8,5,3.8,9v11.7c0,0.8,0.2,1.4,0.5,1.7c0.3,0.3,0.9,0.4,1.6,0.4h1V128.7z M250.7,114.4
		c-1.9,0-3.4,0.4-4.4,1.1c-1.1,0.8-1.6,1.8-1.6,3.2c0,1.2,0.4,2.1,1.3,2.8c0.9,0.7,2.1,1,3.6,1c2.4,0,4.2-0.7,5.6-2
		c1.4-1.4,2.1-3.2,2.1-5.4v-0.6H250.7z"/>
	<path class="st7" d="M306.4,110.8v18h-9.1v-17.5c0-5.7-2.2-8.6-6.7-8.6c-2.4,0-4.2,0.8-5.5,2.4c-1.3,1.6-1.9,3.8-1.9,6.7v16.9h-9.1
		V95.6h7.9l0.8,4.1c1.2-1.4,2.6-2.5,4.2-3.3c1.6-0.8,3.6-1.2,6.1-1.2c3.9,0,7,1.2,9.5,3.6C305.2,101.2,306.4,105.2,306.4,110.8"/>
	<path class="st7" d="M327.8,129.1c-3.4,0-6.4-0.7-9-2.1c-2.6-1.4-4.6-3.4-6-6c-1.4-2.6-2.1-5.5-2.1-8.9c0-3.4,0.7-6.4,2.1-8.9
		c1.4-2.6,3.4-4.5,6-5.9c2.6-1.4,5.6-2.1,9-2.1c4.4,0,8,1.1,10.8,3.4c2.8,2.3,4.5,5.4,5.2,9.4h-9.4c-0.4-1.6-1.2-2.9-2.3-3.9
		c-1.2-1-2.6-1.4-4.3-1.4c-2.4,0-4.3,0.9-5.7,2.6c-1.4,1.8-2.1,4.1-2.1,6.9s0.7,5.1,2.1,6.9c1.4,1.8,3.3,2.6,5.7,2.6
		c1.8,0,3.2-0.5,4.4-1.5c1.2-1,1.9-2.3,2.3-4.1h9.3c-0.6,4-2.3,7.2-5.1,9.5C335.9,128,332.3,129.1,327.8,129.1"/>
	<path class="st7" d="M356.1,97.3c2.5-1.4,5.4-2.1,8.7-2.1c3.3,0,6.3,0.7,8.9,2c2.6,1.3,4.6,3.2,6,5.5c1.4,2.4,2.2,5.2,2.2,8.4
		c0,1.2-0.1,2.2-0.3,3.1h-24v0.3c0.2,2.4,1,4.3,2.3,5.7c1.3,1.4,3.2,2.1,5.5,2.1c1.8,0,3.4-0.4,4.6-1.2c1.2-0.8,2-2,2.4-3.5h9
		c-0.3,2.2-1.2,4.2-2.5,5.9c-1.3,1.8-3.1,3.1-5.3,4.2c-2.2,1-4.7,1.5-7.5,1.5c-3.7,0-6.9-0.7-9.6-2.1c-2.7-1.4-4.7-3.3-6.2-5.9
		c-1.4-2.6-2.2-5.5-2.2-8.9c0-3.4,0.7-6.4,2.1-9C351.7,100.7,353.6,98.7,356.1,97.3 M370.4,103.6c-1.4-1.1-3.1-1.6-5.1-1.6
		c-2,0-3.6,0.6-5,1.7c-1.4,1.1-2.2,2.7-2.4,4.6h15C372.5,106.3,371.7,104.7,370.4,103.6"/>
	<polygon class="st7" points="154.4,28.8 165.2,62.1 176.3,28.8 186.3,28.8 171,73.9 159.5,73.9 144.2,28.8 	"/>
	<path class="st7" d="M218.3,73.9h-4.6c-4.2,0-6.2-1.8-6.1-5.4c-1.2,1.9-2.7,3.3-4.4,4.3c-1.8,1-3.9,1.5-6.4,1.5
		c-3.7,0-6.7-0.8-8.9-2.5c-2.3-1.7-3.4-4.1-3.4-7.2c0-3.5,1.3-6.2,3.9-8.1c2.6-1.9,6.4-2.9,11.3-2.9h6.6v-1.6c0-1.5-0.6-2.7-1.7-3.6
		c-1.1-0.9-2.6-1.3-4.5-1.3c-1.7,0-3,0.4-4.1,1.1c-1.1,0.7-1.7,1.7-1.9,3h-8.8c0.3-3.4,1.8-6,4.5-7.9c2.7-1.9,6.3-2.8,10.8-2.8
		c4.7,0,8.3,1,10.9,3.1c2.6,2.1,3.8,5,3.8,9v11.7c0,0.8,0.2,1.4,0.5,1.7c0.3,0.3,0.9,0.4,1.6,0.4h1V73.9z M199.6,59.6
		c-1.9,0-3.4,0.4-4.4,1.1c-1.1,0.8-1.6,1.8-1.6,3.2c0,1.2,0.4,2.1,1.3,2.8c0.9,0.7,2.1,1,3.6,1c2.4,0,4.2-0.7,5.6-2
		c1.4-1.4,2.1-3.2,2.1-5.4v-0.6H199.6z"/>
	<rect x="223.2" y="28.8" class="st7" width="9.1" height="45.1"/>
	<path class="st7" d="M269.7,73.9h-8.1l-0.8-4c-1.2,1.4-2.5,2.4-4.1,3.2c-1.5,0.8-3.4,1.2-5.7,1.2c-3.9,0-7-1.2-9.5-3.6
		c-2.4-2.4-3.7-6.4-3.7-11.9v-18h9.1v16.9c0,3,0.5,5.3,1.6,6.8s2.7,2.3,4.9,2.3c2.3,0,4-0.8,5.3-2.5c1.2-1.7,1.9-4.1,1.9-7.1V40.8
		h9.1V73.9z"/>
	<path class="st7" d="M283.3,42.5c2.5-1.4,5.4-2.1,8.7-2.1c3.3,0,6.3,0.7,8.9,2c2.6,1.3,4.6,3.2,6,5.5c1.4,2.4,2.2,5.2,2.2,8.4
		c0,1.2-0.1,2.2-0.3,3.1h-24v0.3c0.2,2.4,1,4.3,2.3,5.7c1.3,1.4,3.2,2.1,5.5,2.1c1.8,0,3.4-0.4,4.6-1.2c1.2-0.8,2-2,2.4-3.5h9
		c-0.3,2.2-1.2,4.2-2.5,5.9c-1.3,1.8-3.1,3.1-5.3,4.2c-2.2,1-4.7,1.5-7.5,1.5c-3.7,0-6.9-0.7-9.6-2.1c-2.7-1.4-4.7-3.3-6.2-5.9
		c-1.4-2.6-2.2-5.5-2.2-8.9c0-3.4,0.7-6.4,2.1-9C278.9,45.8,280.8,43.9,283.3,42.5 M297.5,48.8c-1.4-1.1-3.1-1.6-5.1-1.6
		c-2,0-3.6,0.6-5,1.7c-1.4,1.1-2.2,2.7-2.4,4.6h15C299.7,51.4,298.9,49.9,297.5,48.8"/>
	<path class="st7" d="M366.6,55.7v18.2h-9.1V55.4c0-5-1.9-7.5-5.7-7.5c-2,0-3.6,0.7-4.8,2.1c-1.2,1.4-1.8,3.3-1.8,5.8v18.2h-9.1
		V55.4c0-5-1.9-7.5-5.8-7.5c-2,0-3.6,0.7-4.7,2.2c-1.2,1.4-1.8,3.4-1.8,5.8v18.1h-9.1V40.8h7.9l0.8,4.1c1.1-1.4,2.4-2.5,4-3.3
		c1.5-0.8,3.5-1.2,5.8-1.2c4.7,0,8,1.9,9.9,5.6c1.2-1.8,2.8-3.2,4.7-4.2c2-1,4.2-1.4,6.7-1.4c3.6,0,6.5,1.2,8.7,3.5
		C365.4,46.3,366.6,50.2,366.6,55.7"/>
	<path class="st7" d="M110.8,125.6l-54.3,6.9c-16.3,2.1-31.2-9.5-33.2-25.8L18,66C16,49.7,27.5,34.8,43.8,32.7l54.3-6.9
		c16.3-2.1,31.2,9.5,33.2,25.8l5.2,40.7C138.6,108.6,127.1,123.5,110.8,125.6"/>
	<path class="st5" d="M91.5,69.9l-18.2,31.4c-3.3,5.6-11.1,6.3-15.3,1.3L37.8,78.3c-1.6-1.9-0.4-4.9,2.1-5.1l11.2-1.1l13.7,16.8
		l18.1-32.1l27.4-2.6c3.4-0.3,6.4,2.2,6.8,5.6l0.1,1.1L91.5,69.9z"/>
	<polygon class="st6" points="98.1,104.5 78.8,106.4 83.2,97.8 94.7,77.6 117.5,68.7 111.2,86.6 96.5,88 	"/>
	<polygon class="st4" points="678,83.6 678,92 657.9,92 657.9,102.5 674.4,102.5 674.4,110.4 657.9,110.4 657.9,128.7 648.3,128.7 
		648.3,83.6 	"/>
	<path class="st4" d="M692.9,86.9c0,1.5-0.5,2.7-1.5,3.7c-1,1-2.2,1.5-3.7,1.5c-1.5,0-2.8-0.5-3.8-1.5c-1-1-1.5-2.2-1.5-3.7
		c0-1.5,0.5-2.7,1.5-3.6c1-1,2.3-1.4,3.8-1.4c1.5,0,2.7,0.5,3.7,1.4C692.4,84.3,692.9,85.5,692.9,86.9 M692.2,128.7h-9.1V95.6h9.1
		V128.7z"/>
	<path class="st4" d="M730.6,110.8v18h-9.1v-17.5c0-5.7-2.2-8.6-6.7-8.6c-2.4,0-4.2,0.8-5.5,2.4c-1.3,1.6-1.9,3.8-1.9,6.7v16.9h-9.1
		V95.6h7.9l0.8,4.1c1.2-1.4,2.6-2.5,4.2-3.3c1.6-0.8,3.6-1.2,6.1-1.2c3.9,0,7,1.2,9.5,3.6C729.4,101.2,730.6,105.2,730.6,110.8"/>
	<path class="st4" d="M769.5,128.7h-4.6c-4.2,0-6.2-1.8-6.1-5.4c-1.2,1.9-2.7,3.3-4.4,4.3c-1.8,1-3.9,1.5-6.4,1.5
		c-3.7,0-6.7-0.8-8.9-2.5c-2.3-1.7-3.4-4.1-3.4-7.2c0-3.5,1.3-6.2,3.9-8.1c2.6-1.9,6.4-2.9,11.3-2.9h6.6v-1.6c0-1.5-0.6-2.7-1.7-3.6
		c-1.1-0.9-2.6-1.3-4.5-1.3c-1.7,0-3,0.4-4.1,1.1c-1.1,0.7-1.7,1.7-1.9,3h-8.8c0.3-3.4,1.8-6,4.5-7.9c2.7-1.9,6.3-2.8,10.8-2.8
		c4.7,0,8.3,1,10.9,3.1c2.6,2.1,3.8,5,3.8,9v11.7c0,0.8,0.2,1.4,0.5,1.7c0.3,0.3,0.9,0.4,1.6,0.4h1V128.7z M750.7,114.4
		c-1.9,0-3.4,0.4-4.4,1.1c-1.1,0.8-1.6,1.8-1.6,3.2c0,1.2,0.4,2.1,1.3,2.8c0.9,0.7,2.1,1,3.6,1c2.4,0,4.2-0.7,5.6-2
		c1.4-1.4,2.1-3.2,2.1-5.4v-0.6H750.7z"/>
	<path class="st4" d="M806.4,110.8v18h-9.1v-17.5c0-5.7-2.2-8.6-6.7-8.6c-2.4,0-4.2,0.8-5.5,2.4c-1.3,1.6-1.9,3.8-1.9,6.7v16.9h-9.1
		V95.6h7.9l0.8,4.1c1.2-1.4,2.6-2.5,4.2-3.3c1.6-0.8,3.6-1.2,6.1-1.2c3.9,0,7,1.2,9.5,3.6C805.2,101.2,806.4,105.2,806.4,110.8"/>
	<path class="st4" d="M827.8,129.1c-3.4,0-6.4-0.7-9-2.1c-2.6-1.4-4.6-3.4-6-6c-1.4-2.6-2.1-5.5-2.1-8.9c0-3.4,0.7-6.4,2.1-8.9
		c1.4-2.6,3.4-4.5,6-5.9c2.6-1.4,5.6-2.1,9-2.1c4.4,0,8,1.1,10.8,3.4c2.8,2.3,4.5,5.4,5.2,9.4h-9.4c-0.4-1.6-1.2-2.9-2.3-3.9
		s-2.6-1.4-4.3-1.4c-2.4,0-4.3,0.9-5.7,2.6c-1.4,1.8-2.1,4.1-2.1,6.9s0.7,5.1,2.1,6.9c1.4,1.8,3.3,2.6,5.7,2.6
		c1.8,0,3.2-0.5,4.4-1.5c1.2-1,1.9-2.3,2.3-4.1h9.3c-0.6,4-2.3,7.2-5.1,9.5C835.9,128,832.3,129.1,827.8,129.1"/>
	<path class="st4" d="M856.1,97.3c2.5-1.4,5.4-2.1,8.7-2.1c3.3,0,6.3,0.7,8.9,2c2.6,1.3,4.6,3.2,6,5.5c1.4,2.4,2.2,5.2,2.2,8.4
		c0,1.2-0.1,2.2-0.3,3.1h-24v0.3c0.2,2.4,1,4.3,2.3,5.7c1.3,1.4,3.2,2.1,5.5,2.1c1.8,0,3.4-0.4,4.6-1.2c1.2-0.8,2-2,2.4-3.5h9
		c-0.3,2.2-1.2,4.2-2.5,5.9c-1.3,1.8-3.1,3.1-5.3,4.2c-2.2,1-4.7,1.5-7.5,1.5c-3.7,0-6.9-0.7-9.6-2.1c-2.7-1.4-4.7-3.3-6.2-5.9
		c-1.4-2.6-2.2-5.5-2.2-8.9c0-3.4,0.7-6.4,2.1-9C851.7,100.7,853.6,98.7,856.1,97.3 M870.4,103.6c-1.4-1.1-3.1-1.6-5.1-1.6
		c-2,0-3.6,0.6-5,1.7c-1.4,1.1-2.2,2.7-2.4,4.6h15C872.5,106.3,871.7,104.7,870.4,103.6"/>
	<polygon class="st4" points="654.4,28.8 665.2,62.1 676.3,28.8 686.3,28.8 671,73.9 659.5,73.9 644.2,28.8 	"/>
	<path class="st4" d="M718.3,73.9h-4.6c-4.2,0-6.2-1.8-6.1-5.4c-1.2,1.9-2.7,3.3-4.4,4.3c-1.8,1-3.9,1.5-6.4,1.5
		c-3.7,0-6.7-0.8-8.9-2.5c-2.3-1.7-3.4-4.1-3.4-7.2c0-3.5,1.3-6.2,3.9-8.1c2.6-1.9,6.4-2.9,11.3-2.9h6.6v-1.6c0-1.5-0.6-2.7-1.7-3.6
		c-1.1-0.9-2.6-1.3-4.5-1.3c-1.7,0-3,0.4-4.1,1.1c-1.1,0.7-1.7,1.7-1.9,3h-8.8c0.3-3.4,1.8-6,4.5-7.9c2.7-1.9,6.3-2.8,10.8-2.8
		c4.7,0,8.3,1,10.9,3.1c2.6,2.1,3.8,5,3.8,9v11.7c0,0.8,0.2,1.4,0.5,1.7c0.3,0.3,0.9,0.4,1.6,0.4h1V73.9z M699.6,59.6
		c-1.9,0-3.4,0.4-4.4,1.1c-1.1,0.8-1.6,1.8-1.6,3.2c0,1.2,0.4,2.1,1.3,2.8c0.9,0.7,2.1,1,3.6,1c2.4,0,4.2-0.7,5.6-2
		c1.4-1.4,2.1-3.2,2.1-5.4v-0.6H699.6z"/>
	<rect x="723.2" y="28.8" class="st4" width="9.1" height="45.1"/>
	<path class="st4" d="M769.7,73.9h-8.1l-0.8-4c-1.2,1.4-2.5,2.4-4.1,3.2c-1.5,0.8-3.4,1.2-5.7,1.2c-3.9,0-7-1.2-9.5-3.6
		c-2.4-2.4-3.7-6.4-3.7-11.9v-18h9.1v16.9c0,3,0.5,5.3,1.6,6.8s2.7,2.3,4.9,2.3c2.3,0,4-0.8,5.3-2.5c1.2-1.7,1.9-4.1,1.9-7.1V40.8
		h9.1V73.9z"/>
	<path class="st4" d="M783.3,42.5c2.5-1.4,5.4-2.1,8.7-2.1c3.3,0,6.3,0.7,8.9,2c2.6,1.3,4.6,3.2,6,5.5c1.4,2.4,2.2,5.2,2.2,8.4
		c0,1.2-0.1,2.2-0.3,3.1h-24v0.3c0.2,2.4,1,4.3,2.3,5.7c1.3,1.4,3.2,2.1,5.5,2.1c1.8,0,3.4-0.4,4.6-1.2c1.2-0.8,2-2,2.4-3.5h9
		c-0.3,2.2-1.2,4.2-2.5,5.9c-1.3,1.8-3.1,3.1-5.3,4.2c-2.2,1-4.7,1.5-7.5,1.5c-3.7,0-6.9-0.7-9.6-2.1c-2.7-1.4-4.7-3.3-6.2-5.9
		c-1.4-2.6-2.2-5.5-2.2-8.9c0-3.4,0.7-6.4,2.1-9C778.9,45.8,780.8,43.9,783.3,42.5 M797.5,48.8c-1.4-1.1-3.1-1.6-5.1-1.6
		c-2,0-3.6,0.6-5,1.7c-1.4,1.1-2.2,2.7-2.4,4.6h15C799.7,51.4,798.9,49.9,797.5,48.8"/>
	<path class="st4" d="M866.6,55.7v18.2h-9.1V55.4c0-5-1.9-7.5-5.7-7.5c-2,0-3.6,0.7-4.8,2.1c-1.2,1.4-1.8,3.3-1.8,5.8v18.2h-9.1
		V55.4c0-5-1.9-7.5-5.8-7.5c-2,0-3.6,0.7-4.7,2.2c-1.2,1.4-1.8,3.4-1.8,5.8v18.1h-9.1V40.8h7.9l0.8,4.1c1.1-1.4,2.4-2.5,4-3.3
		c1.5-0.8,3.5-1.2,5.8-1.2c4.7,0,8,1.9,9.9,5.6c1.2-1.8,2.8-3.2,4.7-4.2c2-1,4.2-1.4,6.7-1.4c3.6,0,6.5,1.2,8.7,3.5
		C865.4,46.3,866.6,50.2,866.6,55.7"/>
	<path class="st4" d="M610.8,125.6l-54.3,6.9c-16.3,2.1-31.2-9.5-33.2-25.8L518,66c-2.1-16.3,9.5-31.2,25.8-33.2l54.3-6.9
		c16.3-2.1,31.2,9.5,33.2,25.8l5.2,40.7C638.6,108.6,627.1,123.5,610.8,125.6"/>
	<path class="st5" d="M591.5,69.9l-18.2,31.4c-3.3,5.6-11.1,6.3-15.3,1.3l-20.2-24.3c-1.6-1.9-0.4-4.9,2.1-5.1l11.2-1.1l13.7,16.8
		l18.1-32.1l27.4-2.6c3.4-0.3,6.4,2.2,6.8,5.6l0.1,1.1L591.5,69.9z"/>
	<polygon class="st6" points="598.1,104.5 578.8,106.4 583.2,97.8 594.7,77.6 617.5,68.7 611.2,86.6 596.5,88 	"/>
	<polygon class="st4" points="1178,83.6 1178,92 1157.9,92 1157.9,102.5 1174.4,102.5 1174.4,110.4 1157.9,110.4 1157.9,128.7 
		1148.3,128.7 1148.3,83.6 	"/>
	<path class="st4" d="M1192.9,86.9c0,1.5-0.5,2.7-1.5,3.7c-1,1-2.2,1.5-3.7,1.5c-1.5,0-2.8-0.5-3.8-1.5c-1-1-1.5-2.2-1.5-3.7
		c0-1.5,0.5-2.7,1.5-3.6c1-1,2.3-1.4,3.8-1.4c1.5,0,2.7,0.5,3.7,1.4C1192.4,84.3,1192.9,85.5,1192.9,86.9 M1192.2,128.7h-9.1V95.6
		h9.1V128.7z"/>
	<path class="st4" d="M1230.6,110.8v18h-9.1v-17.5c0-5.7-2.2-8.6-6.7-8.6c-2.4,0-4.2,0.8-5.5,2.4c-1.3,1.6-1.9,3.8-1.9,6.7v16.9
		h-9.1V95.6h7.9l0.8,4.1c1.2-1.4,2.6-2.5,4.2-3.3c1.6-0.8,3.6-1.2,6.1-1.2c3.9,0,7,1.2,9.5,3.6
		C1229.4,101.2,1230.6,105.2,1230.6,110.8"/>
	<path class="st4" d="M1269.5,128.7h-4.6c-4.2,0-6.2-1.8-6.1-5.4c-1.2,1.9-2.7,3.3-4.4,4.3c-1.8,1-3.9,1.5-6.4,1.5
		c-3.7,0-6.7-0.8-8.9-2.5c-2.3-1.7-3.4-4.1-3.4-7.2c0-3.5,1.3-6.2,3.9-8.1c2.6-1.9,6.4-2.9,11.3-2.9h6.6v-1.6c0-1.5-0.6-2.7-1.7-3.6
		c-1.1-0.9-2.6-1.3-4.5-1.3c-1.7,0-3,0.4-4.1,1.1c-1.1,0.7-1.7,1.7-1.9,3h-8.8c0.3-3.4,1.8-6,4.5-7.9c2.7-1.9,6.3-2.8,10.8-2.8
		c4.7,0,8.3,1,10.9,3.1c2.6,2.1,3.8,5,3.8,9v11.7c0,0.8,0.2,1.4,0.5,1.7c0.3,0.3,0.9,0.4,1.6,0.4h1V128.7z M1250.7,114.4
		c-1.9,0-3.4,0.4-4.4,1.1c-1.1,0.8-1.6,1.8-1.6,3.2c0,1.2,0.4,2.1,1.3,2.8c0.9,0.7,2.1,1,3.6,1c2.4,0,4.2-0.7,5.6-2
		c1.4-1.4,2.1-3.2,2.1-5.4v-0.6H1250.7z"/>
	<path class="st4" d="M1306.4,110.8v18h-9.1v-17.5c0-5.7-2.2-8.6-6.7-8.6c-2.4,0-4.2,0.8-5.5,2.4c-1.3,1.6-1.9,3.8-1.9,6.7v16.9
		h-9.1V95.6h7.9l0.8,4.1c1.2-1.4,2.6-2.5,4.2-3.3c1.6-0.8,3.6-1.2,6.1-1.2c3.9,0,7,1.2,9.5,3.6
		C1305.2,101.2,1306.4,105.2,1306.4,110.8"/>
	<path class="st4" d="M1327.8,129.1c-3.4,0-6.4-0.7-9-2.1c-2.6-1.4-4.6-3.4-6-6c-1.4-2.6-2.1-5.5-2.1-8.9c0-3.4,0.7-6.4,2.1-8.9
		c1.4-2.6,3.4-4.5,6-5.9c2.6-1.4,5.6-2.1,9-2.1c4.4,0,8,1.1,10.8,3.4c2.8,2.3,4.5,5.4,5.2,9.4h-9.4c-0.4-1.6-1.2-2.9-2.3-3.9
		s-2.6-1.4-4.3-1.4c-2.4,0-4.3,0.9-5.7,2.6c-1.4,1.8-2.1,4.1-2.1,6.9s0.7,5.1,2.1,6.9c1.4,1.8,3.3,2.6,5.7,2.6
		c1.8,0,3.2-0.5,4.4-1.5c1.2-1,1.9-2.3,2.3-4.1h9.3c-0.6,4-2.3,7.2-5.1,9.5C1335.9,128,1332.3,129.1,1327.8,129.1"/>
	<path class="st4" d="M1356.1,97.3c2.5-1.4,5.4-2.1,8.7-2.1c3.3,0,6.3,0.7,8.9,2c2.6,1.3,4.6,3.2,6,5.5c1.4,2.4,2.2,5.2,2.2,8.4
		c0,1.2-0.1,2.2-0.3,3.1h-24v0.3c0.2,2.4,1,4.3,2.3,5.7c1.3,1.4,3.2,2.1,5.5,2.1c1.8,0,3.4-0.4,4.6-1.2c1.2-0.8,2-2,2.4-3.5h9
		c-0.3,2.2-1.2,4.2-2.5,5.9c-1.3,1.8-3.1,3.1-5.3,4.2c-2.2,1-4.7,1.5-7.5,1.5c-3.7,0-6.9-0.7-9.6-2.1c-2.7-1.4-4.7-3.3-6.2-5.9
		c-1.4-2.6-2.2-5.5-2.2-8.9c0-3.4,0.7-6.4,2.1-9C1351.7,100.7,1353.6,98.7,1356.1,97.3 M1370.4,103.6c-1.4-1.1-3.1-1.6-5.1-1.6
		c-2,0-3.6,0.6-5,1.7c-1.4,1.1-2.2,2.7-2.4,4.6h15C1372.5,106.3,1371.7,104.7,1370.4,103.6"/>
	<polygon class="st4" points="1154.4,28.8 1165.2,62.1 1176.3,28.8 1186.3,28.8 1171,73.9 1159.5,73.9 1144.2,28.8 	"/>
	<path class="st4" d="M1218.3,73.9h-4.6c-4.2,0-6.2-1.8-6.1-5.4c-1.2,1.9-2.7,3.3-4.4,4.3c-1.8,1-3.9,1.5-6.4,1.5
		c-3.7,0-6.7-0.8-8.9-2.5c-2.3-1.7-3.4-4.1-3.4-7.2c0-3.5,1.3-6.2,3.9-8.1c2.6-1.9,6.4-2.9,11.3-2.9h6.6v-1.6c0-1.5-0.6-2.7-1.7-3.6
		c-1.1-0.9-2.6-1.3-4.5-1.3c-1.7,0-3,0.4-4.1,1.1c-1.1,0.7-1.7,1.7-1.9,3h-8.8c0.3-3.4,1.8-6,4.5-7.9c2.7-1.9,6.3-2.8,10.8-2.8
		c4.7,0,8.3,1,10.9,3.1c2.6,2.1,3.8,5,3.8,9v11.7c0,0.8,0.2,1.4,0.5,1.7c0.3,0.3,0.9,0.4,1.6,0.4h1V73.9z M1199.6,59.6
		c-1.9,0-3.4,0.4-4.4,1.1c-1.1,0.8-1.6,1.8-1.6,3.2c0,1.2,0.4,2.1,1.3,2.8c0.9,0.7,2.1,1,3.6,1c2.4,0,4.2-0.7,5.6-2
		c1.4-1.4,2.1-3.2,2.1-5.4v-0.6H1199.6z"/>
	<rect x="1223.2" y="28.8" class="st4" width="9.1" height="45.1"/>
	<path class="st4" d="M1269.7,73.9h-8.1l-0.8-4c-1.2,1.4-2.5,2.4-4.1,3.2c-1.5,0.8-3.4,1.2-5.7,1.2c-3.9,0-7-1.2-9.5-3.6
		c-2.4-2.4-3.7-6.4-3.7-11.9v-18h9.1v16.9c0,3,0.5,5.3,1.6,6.8s2.7,2.3,4.9,2.3c2.3,0,4-0.8,5.3-2.5c1.2-1.7,1.9-4.1,1.9-7.1V40.8
		h9.1V73.9z"/>
	<path class="st4" d="M1283.3,42.5c2.5-1.4,5.4-2.1,8.7-2.1c3.3,0,6.3,0.7,8.9,2c2.6,1.3,4.6,3.2,6,5.5c1.4,2.4,2.2,5.2,2.2,8.4
		c0,1.2-0.1,2.2-0.3,3.1h-24v0.3c0.2,2.4,1,4.3,2.3,5.7c1.3,1.4,3.2,2.1,5.5,2.1c1.8,0,3.4-0.4,4.6-1.2c1.2-0.8,2-2,2.4-3.5h9
		c-0.3,2.2-1.2,4.2-2.5,5.9c-1.3,1.8-3.1,3.1-5.3,4.2c-2.2,1-4.7,1.5-7.5,1.5c-3.7,0-6.9-0.7-9.6-2.1c-2.7-1.4-4.7-3.3-6.2-5.9
		c-1.4-2.6-2.2-5.5-2.2-8.9c0-3.4,0.7-6.4,2.1-9C1278.9,45.8,1280.8,43.9,1283.3,42.5 M1297.5,48.8c-1.4-1.1-3.1-1.6-5.1-1.6
		c-2,0-3.6,0.6-5,1.7c-1.4,1.1-2.2,2.7-2.4,4.6h15C1299.7,51.4,1298.9,49.9,1297.5,48.8"/>
	<path class="st4" d="M1366.6,55.7v18.2h-9.1V55.4c0-5-1.9-7.5-5.7-7.5c-2,0-3.6,0.7-4.8,2.1c-1.2,1.4-1.8,3.3-1.8,5.8v18.2h-9.1
		V55.4c0-5-1.9-7.5-5.8-7.5c-2,0-3.6,0.7-4.7,2.2c-1.2,1.4-1.8,3.4-1.8,5.8v18.1h-9.1V40.8h7.9l0.8,4.1c1.1-1.4,2.4-2.5,4-3.3
		c1.5-0.8,3.5-1.2,5.8-1.2c4.7,0,8,1.9,9.9,5.6c1.2-1.8,2.8-3.2,4.7-4.2c2-1,4.2-1.4,6.7-1.4c3.6,0,6.5,1.2,8.7,3.5
		C1365.4,46.3,1366.6,50.2,1366.6,55.7"/>
	<path class="st4" d="M1110.8,125.6l-54.3,6.9c-16.3,2.1-31.2-9.5-33.2-25.8L1018,66c-2.1-16.3,9.5-31.2,25.8-33.2l54.3-6.9
		c16.3-2.1,31.2,9.5,33.2,25.8l5.2,40.7C1138.6,108.6,1127.1,123.5,1110.8,125.6"/>
	<path class="st5" d="M1091.5,69.9l-18.2,31.4c-3.3,5.6-11.1,6.3-15.3,1.3l-20.2-24.3c-1.6-1.9-0.4-4.9,2.1-5.1l11.2-1.1l13.7,16.8
		l18.1-32.1l27.4-2.6c3.4-0.3,6.4,2.2,6.8,5.6l0.1,1.1L1091.5,69.9z"/>
	<polygon class="st6" points="1098.1,104.5 1078.8,106.4 1083.2,97.8 1094.7,77.6 1117.5,68.7 1111.2,86.6 1096.5,88 	"/>
</g>
</svg>
