<?xml version="1.0" encoding="utf-8"?>
<!-- Generator: Adobe Illustrator 19.0.0, SVG Export Plug-In . SVG Version: 6.00 Build 0)  -->
<svg version="1.1" id="Capa_1" xmlns="http://www.w3.org/2000/svg" xmlns:xlink="http://www.w3.org/1999/xlink" x="0px" y="0px"
	 viewBox="0 0 431.5 163.5" style="enable-background:new 0 0 431.5 163.5;" xml:space="preserve">
<style type="text/css">
	.st0{display:none;fill:#3E02B2;}
	.st1{display:none;fill:#47DDFF;}
	.st2{display:none;fill:#A0F818;}
	.st3{fill:#3E02B2;}
	.st4{clip-path:url(#SVGID_2_);fill:#3E02B2;}
	.st5{clip-path:url(#SVGID_2_);fill:#A0F818;}
	.st6{clip-path:url(#SVGID_2_);fill:#47DDFF;}
	.st7{clip-path:url(#SVGID_2_);fill:#FFFFFF;}
</style>
<rect x="-531.5" y="-103.9" class="st0" width="500" height="360.9"/>
<rect x="-31.5" y="-103.9" class="st1" width="500" height="360.9"/>
<rect x="468.5" y="-103.9" class="st2" width="500" height="360.9"/>
<polygon class="st3" points="-803.4,83.6 -803.4,92 -823.5,92 -823.5,102.5 -807,102.5 -807,110.4 -823.5,110.4 -823.5,128.7 
	-833.1,128.7 -833.1,83.6 "/>
<g>
	<defs>
		<rect id="SVGID_1_" x="-1031.5" y="-103.9" width="2000" height="360.9"/>
	</defs>
	<clipPath id="SVGID_2_">
		<use xlink:href="#SVGID_1_"  style="overflow:visible;"/>
	</clipPath>
	<path class="st4" d="M-788.5,86.9c0,1.5-0.5,2.7-1.5,3.7c-1,1-2.2,1.5-3.7,1.5c-1.5,0-2.8-0.5-3.8-1.5c-1-1-1.5-2.2-1.5-3.7
		c0-1.5,0.5-2.7,1.5-3.6c1-1,2.3-1.4,3.8-1.4c1.5,0,2.7,0.5,3.7,1.4C-789,84.3-788.5,85.5-788.5,86.9 M-789.2,128.7h-9.1V95.6h9.1
		V128.7z"/>
	<path class="st4" d="M-750.8,110.8v18h-9.1v-17.5c0-5.7-2.2-8.6-6.7-8.6c-2.4,0-4.2,0.8-5.5,2.4c-1.3,1.6-1.9,3.8-1.9,6.7v16.9
		h-9.1V95.6h7.9l0.8,4.1c1.2-1.4,2.6-2.5,4.2-3.3c1.6-0.8,3.6-1.2,6.1-1.2c3.9,0,7,1.2,9.5,3.6C-752,101.2-750.8,105.2-750.8,110.8"
		/>
	<path class="st4" d="M-711.9,128.7h-4.6c-4.2,0-6.2-1.8-6.1-5.4c-1.2,1.9-2.7,3.3-4.4,4.3c-1.8,1-3.9,1.5-6.4,1.5
		c-3.7,0-6.7-0.8-8.9-2.5c-2.3-1.7-3.4-4.1-3.4-7.2c0-3.5,1.3-6.2,3.9-8.1c2.6-1.9,6.4-2.9,11.3-2.9h6.6v-1.6c0-1.5-0.6-2.7-1.7-3.6
		c-1.1-0.9-2.6-1.3-4.5-1.3c-1.7,0-3,0.4-4.1,1.1c-1.1,0.7-1.7,1.7-1.9,3h-8.8c0.3-3.4,1.8-6,4.5-7.9c2.7-1.9,6.3-2.8,10.8-2.8
		c4.7,0,8.3,1,10.9,3.1c2.6,2.1,3.8,5,3.8,9v11.7c0,0.8,0.2,1.4,0.5,1.7c0.3,0.3,0.9,0.4,1.6,0.4h1V128.7z M-730.7,114.4
		c-1.9,0-3.4,0.4-4.4,1.1c-1.1,0.8-1.6,1.8-1.6,3.2c0,1.2,0.4,2.1,1.3,2.8c0.9,0.7,2.1,1,3.6,1c2.4,0,4.2-0.7,5.6-2
		c1.4-1.4,2.1-3.2,2.1-5.4v-0.6H-730.7z"/>
	<path class="st4" d="M-675,110.8v18h-9.1v-17.5c0-5.7-2.2-8.6-6.7-8.6c-2.4,0-4.2,0.8-5.5,2.4c-1.3,1.6-1.9,3.8-1.9,6.7v16.9h-9.1
		V95.6h7.9l0.8,4.1c1.2-1.4,2.6-2.5,4.2-3.3c1.6-0.8,3.6-1.2,6.1-1.2c3.9,0,7,1.2,9.5,3.6C-676.2,101.2-675,105.2-675,110.8"/>
	<path class="st4" d="M-653.6,129.1c-3.4,0-6.4-0.7-9-2.1c-2.6-1.4-4.6-3.4-6-6c-1.4-2.6-2.1-5.5-2.1-8.9c0-3.4,0.7-6.4,2.1-8.9
		c1.4-2.6,3.4-4.5,6-5.9c2.6-1.4,5.6-2.1,9-2.1c4.4,0,8,1.1,10.8,3.4c2.8,2.3,4.5,5.4,5.2,9.4h-9.4c-0.4-1.6-1.2-2.9-2.3-3.9
		c-1.2-1-2.6-1.4-4.3-1.4c-2.4,0-4.3,0.9-5.7,2.6c-1.4,1.8-2.1,4.1-2.1,6.9s0.7,5.1,2.1,6.9c1.4,1.8,3.3,2.6,5.7,2.6
		c1.8,0,3.2-0.5,4.4-1.5c1.2-1,1.9-2.3,2.3-4.1h9.3c-0.6,4-2.3,7.2-5.1,9.5C-645.5,128-649.1,129.1-653.6,129.1"/>
	<path class="st4" d="M-625.3,97.3c2.5-1.4,5.4-2.1,8.7-2.1c3.3,0,6.3,0.7,8.9,2c2.6,1.3,4.6,3.2,6,5.5c1.4,2.4,2.2,5.2,2.2,8.4
		c0,1.2-0.1,2.2-0.3,3.1h-24v0.3c0.2,2.4,1,4.3,2.3,5.7c1.3,1.4,3.2,2.1,5.5,2.1c1.8,0,3.4-0.4,4.6-1.2c1.2-0.8,2-2,2.4-3.5h9
		c-0.3,2.2-1.2,4.2-2.5,5.9c-1.3,1.8-3.1,3.1-5.3,4.2c-2.2,1-4.7,1.5-7.5,1.5c-3.7,0-6.9-0.7-9.6-2.1c-2.7-1.4-4.7-3.3-6.2-5.9
		c-1.4-2.6-2.2-5.5-2.2-8.9c0-3.4,0.7-6.4,2.1-9C-629.7,100.7-627.8,98.7-625.3,97.3 M-611,103.6c-1.4-1.1-3.1-1.6-5.1-1.6
		c-2,0-3.6,0.6-5,1.7c-1.4,1.1-2.2,2.7-2.4,4.6h15C-608.9,106.3-609.7,104.7-611,103.6"/>
	<polygon class="st4" points="-827,28.8 -816.1,62.1 -805.1,28.8 -795.1,28.8 -810.3,73.9 -821.9,73.9 -837.2,28.8 	"/>
	<path class="st4" d="M-763.1,73.9h-4.6c-4.2,0-6.2-1.8-6.1-5.4c-1.2,1.9-2.7,3.3-4.4,4.3c-1.8,1-3.9,1.5-6.4,1.5
		c-3.7,0-6.7-0.8-8.9-2.5c-2.3-1.7-3.4-4.1-3.4-7.2c0-3.5,1.3-6.2,3.9-8.1c2.6-1.9,6.4-2.9,11.3-2.9h6.6v-1.6c0-1.5-0.6-2.7-1.7-3.6
		c-1.1-0.9-2.6-1.3-4.5-1.3c-1.7,0-3,0.4-4.1,1.1c-1.1,0.7-1.7,1.7-1.9,3h-8.8c0.3-3.4,1.8-6,4.5-7.9c2.7-1.9,6.3-2.8,10.8-2.8
		c4.7,0,8.3,1,10.9,3.1c2.6,2.1,3.8,5,3.8,9v11.7c0,0.8,0.2,1.4,0.5,1.7c0.3,0.3,0.9,0.4,1.6,0.4h1V73.9z M-781.8,59.6
		c-1.9,0-3.4,0.4-4.4,1.1c-1.1,0.8-1.6,1.8-1.6,3.2c0,1.2,0.4,2.1,1.3,2.8c0.9,0.7,2.1,1,3.6,1c2.4,0,4.2-0.7,5.6-2
		c1.4-1.4,2.1-3.2,2.1-5.4v-0.6H-781.8z"/>
	<rect x="-758.2" y="28.8" class="st4" width="9.1" height="45.1"/>
	<path class="st4" d="M-711.7,73.9h-8.1l-0.8-4c-1.2,1.4-2.5,2.4-4.1,3.2c-1.5,0.8-3.4,1.2-5.7,1.2c-3.9,0-7-1.2-9.5-3.6
		c-2.4-2.4-3.7-6.4-3.7-11.9v-18h9.1v16.9c0,3,0.5,5.3,1.6,6.8s2.7,2.3,4.9,2.3c2.3,0,4-0.8,5.3-2.5c1.2-1.7,1.9-4.1,1.9-7.1V40.8
		h9.1V73.9z"/>
	<path class="st4" d="M-698.1,42.5c2.5-1.4,5.4-2.1,8.7-2.1c3.3,0,6.3,0.7,8.9,2c2.6,1.3,4.6,3.2,6,5.5c1.4,2.4,2.2,5.2,2.2,8.4
		c0,1.2-0.1,2.2-0.3,3.1h-24v0.3c0.2,2.4,1,4.3,2.3,5.7c1.3,1.4,3.2,2.1,5.5,2.1c1.8,0,3.4-0.4,4.6-1.2c1.2-0.8,2-2,2.4-3.5h9
		c-0.3,2.2-1.2,4.2-2.5,5.9c-1.3,1.8-3.1,3.1-5.3,4.2c-2.2,1-4.7,1.5-7.5,1.5c-3.7,0-6.9-0.7-9.6-2.1c-2.7-1.4-4.7-3.3-6.2-5.9
		c-1.4-2.6-2.2-5.5-2.2-8.9c0-3.4,0.7-6.4,2.1-9C-702.5,45.8-700.6,43.9-698.1,42.5 M-683.8,48.8c-1.4-1.1-3.1-1.6-5.1-1.6
		c-2,0-3.6,0.6-5,1.7c-1.4,1.1-2.2,2.7-2.4,4.6h15C-681.7,51.4-682.5,49.9-683.8,48.8"/>
	<path class="st4" d="M-614.8,55.7v18.2h-9.1V55.4c0-5-1.9-7.5-5.7-7.5c-2,0-3.6,0.7-4.8,2.1s-1.8,3.3-1.8,5.8v18.2h-9.1V55.4
		c0-5-1.9-7.5-5.8-7.5c-2,0-3.6,0.7-4.7,2.2c-1.2,1.4-1.8,3.4-1.8,5.8v18.1h-9.1V40.8h7.9l0.8,4.1c1.1-1.4,2.4-2.5,4-3.3
		c1.5-0.8,3.5-1.2,5.8-1.2c4.7,0,8,1.9,9.9,5.6c1.2-1.8,2.8-3.2,4.7-4.2c2-1,4.2-1.4,6.7-1.4c3.6,0,6.5,1.2,8.7,3.5
		C-615.9,46.3-614.8,50.2-614.8,55.7"/>
	<path class="st4" d="M-870.6,125.6l-54.3,6.9c-16.3,2.1-31.2-9.5-33.2-25.8l-5.2-40.7c-2.1-16.3,9.5-31.2,25.8-33.2l54.3-6.9
		c16.3-2.1,31.2,9.5,33.2,25.8l5.2,40.7C-842.8,108.6-854.3,123.5-870.6,125.6"/>
	<path class="st5" d="M-889.9,69.9l-18.2,31.4c-3.3,5.6-11.1,6.3-15.3,1.3l-20.2-24.3c-1.6-1.9-0.4-4.9,2.1-5.1l11.2-1.1l13.7,16.8
		l18.1-32.1l27.4-2.6c3.4-0.3,6.4,2.2,6.8,5.6l0.1,1.1L-889.9,69.9z"/>
	<polygon class="st6" points="-883.3,104.5 -902.6,106.4 -898.2,97.8 -886.7,77.6 -863.9,68.7 -870.2,86.6 -884.9,88 	"/>
	<polygon class="st7" points="-303.4,83.6 -303.4,92 -323.5,92 -323.5,102.5 -307,102.5 -307,110.4 -323.5,110.4 -323.5,128.7 
		-333.1,128.7 -333.1,83.6 	"/>
	<path class="st7" d="M-288.5,86.9c0,1.5-0.5,2.7-1.5,3.7c-1,1-2.2,1.5-3.7,1.5s-2.8-0.5-3.8-1.5c-1-1-1.5-2.2-1.5-3.7
		c0-1.5,0.5-2.7,1.5-3.6c1-1,2.3-1.4,3.8-1.4s2.7,0.5,3.7,1.4C-289,84.3-288.5,85.5-288.5,86.9 M-289.2,128.7h-9.1V95.6h9.1V128.7z"
		/>
	<path class="st7" d="M-250.8,110.8v18h-9.1v-17.5c0-5.7-2.2-8.6-6.7-8.6c-2.4,0-4.2,0.8-5.5,2.4c-1.3,1.6-1.9,3.8-1.9,6.7v16.9
		h-9.1V95.6h7.9l0.8,4.1c1.2-1.4,2.6-2.5,4.2-3.3c1.6-0.8,3.6-1.2,6.1-1.2c3.9,0,7,1.2,9.5,3.6C-252,101.2-250.8,105.2-250.8,110.8"
		/>
	<path class="st7" d="M-211.9,128.7h-4.6c-4.2,0-6.2-1.8-6.1-5.4c-1.2,1.9-2.7,3.3-4.4,4.3c-1.8,1-3.9,1.5-6.4,1.5
		c-3.7,0-6.7-0.8-8.9-2.5c-2.3-1.7-3.4-4.1-3.4-7.2c0-3.5,1.3-6.2,3.9-8.1c2.6-1.9,6.4-2.9,11.3-2.9h6.6v-1.6c0-1.5-0.6-2.7-1.7-3.6
		c-1.1-0.9-2.6-1.3-4.5-1.3c-1.7,0-3,0.4-4.1,1.1c-1.1,0.7-1.7,1.7-1.9,3h-8.8c0.3-3.4,1.8-6,4.5-7.9c2.7-1.9,6.3-2.8,10.8-2.8
		c4.7,0,8.3,1,10.9,3.1c2.6,2.1,3.8,5,3.8,9v11.7c0,0.8,0.2,1.4,0.5,1.7c0.3,0.3,0.9,0.4,1.6,0.4h1V128.7z M-230.7,114.4
		c-1.9,0-3.4,0.4-4.4,1.1c-1.1,0.8-1.6,1.8-1.6,3.2c0,1.2,0.4,2.1,1.3,2.8c0.9,0.7,2.1,1,3.6,1c2.4,0,4.2-0.7,5.6-2
		c1.4-1.4,2.1-3.2,2.1-5.4v-0.6H-230.7z"/>
	<path class="st7" d="M-175,110.8v18h-9.1v-17.5c0-5.7-2.2-8.6-6.7-8.6c-2.4,0-4.2,0.8-5.5,2.4c-1.3,1.6-1.9,3.8-1.9,6.7v16.9h-9.1
		V95.6h7.9l0.8,4.1c1.2-1.4,2.6-2.5,4.2-3.3c1.6-0.8,3.6-1.2,6.1-1.2c3.9,0,7,1.2,9.5,3.6C-176.2,101.2-175,105.2-175,110.8"/>
	<path class="st7" d="M-153.6,129.1c-3.4,0-6.4-0.7-9-2.1c-2.6-1.4-4.6-3.4-6-6c-1.4-2.6-2.1-5.5-2.1-8.9c0-3.4,0.7-6.4,2.1-8.9
		c1.4-2.6,3.4-4.5,6-5.9c2.6-1.4,5.6-2.1,9-2.1c4.4,0,8,1.1,10.8,3.4c2.8,2.3,4.5,5.4,5.2,9.4h-9.4c-0.4-1.6-1.2-2.9-2.3-3.9
		c-1.2-1-2.6-1.4-4.3-1.4c-2.4,0-4.3,0.9-5.7,2.6c-1.4,1.8-2.1,4.1-2.1,6.9s0.7,5.1,2.1,6.9c1.4,1.8,3.3,2.6,5.7,2.6
		c1.8,0,3.2-0.5,4.4-1.5c1.2-1,1.9-2.3,2.3-4.1h9.3c-0.6,4-2.3,7.2-5.1,9.5C-145.5,128-149.1,129.1-153.6,129.1"/>
	<path class="st7" d="M-125.3,97.3c2.5-1.4,5.4-2.1,8.7-2.1c3.3,0,6.3,0.7,8.9,2c2.6,1.3,4.6,3.2,6,5.5c1.4,2.4,2.2,5.2,2.2,8.4
		c0,1.2-0.1,2.2-0.3,3.1h-24v0.3c0.2,2.4,1,4.3,2.3,5.7c1.3,1.4,3.2,2.1,5.5,2.1c1.8,0,3.4-0.4,4.6-1.2c1.2-0.8,2-2,2.4-3.5h9
		c-0.3,2.2-1.2,4.2-2.5,5.9c-1.3,1.8-3.1,3.1-5.3,4.2c-2.2,1-4.7,1.5-7.5,1.5c-3.7,0-6.9-0.7-9.6-2.1c-2.7-1.4-4.7-3.3-6.2-5.9
		c-1.4-2.6-2.2-5.5-2.2-8.9c0-3.4,0.7-6.4,2.1-9C-129.7,100.7-127.8,98.7-125.3,97.3 M-111,103.6c-1.4-1.1-3.1-1.6-5.1-1.6
		c-2,0-3.6,0.6-5,1.7c-1.4,1.1-2.2,2.7-2.4,4.6h15C-108.9,106.3-109.7,104.7-111,103.6"/>
	<polygon class="st7" points="-327,28.8 -316.1,62.1 -305.1,28.8 -295.1,28.8 -310.3,73.9 -321.9,73.9 -337.2,28.8 	"/>
	<path class="st7" d="M-263.1,73.9h-4.6c-4.2,0-6.2-1.8-6.1-5.4c-1.2,1.9-2.7,3.3-4.4,4.3c-1.8,1-3.9,1.5-6.4,1.5
		c-3.7,0-6.7-0.8-8.9-2.5c-2.3-1.7-3.4-4.1-3.4-7.2c0-3.5,1.3-6.2,3.9-8.1c2.6-1.9,6.4-2.9,11.3-2.9h6.6v-1.6c0-1.5-0.6-2.7-1.7-3.6
		c-1.1-0.9-2.6-1.3-4.5-1.3c-1.7,0-3,0.4-4.1,1.1c-1.1,0.7-1.7,1.7-1.9,3h-8.8c0.3-3.4,1.8-6,4.5-7.9c2.7-1.9,6.3-2.8,10.8-2.8
		c4.7,0,8.3,1,10.9,3.1c2.6,2.1,3.8,5,3.8,9v11.7c0,0.8,0.2,1.4,0.5,1.7c0.3,0.3,0.9,0.4,1.6,0.4h1V73.9z M-281.8,59.6
		c-1.9,0-3.4,0.4-4.4,1.1c-1.1,0.8-1.6,1.8-1.6,3.2c0,1.2,0.4,2.1,1.3,2.8c0.9,0.7,2.1,1,3.6,1c2.4,0,4.2-0.7,5.6-2
		c1.4-1.4,2.1-3.2,2.1-5.4v-0.6H-281.8z"/>
	<rect x="-258.2" y="28.8" class="st7" width="9.1" height="45.1"/>
	<path class="st7" d="M-211.7,73.9h-8.1l-0.8-4c-1.2,1.4-2.5,2.4-4.1,3.2c-1.5,0.8-3.4,1.2-5.7,1.2c-3.9,0-7-1.2-9.5-3.6
		c-2.4-2.4-3.7-6.4-3.7-11.9v-18h9.1v16.9c0,3,0.5,5.3,1.6,6.8s2.7,2.3,4.9,2.3c2.3,0,4-0.8,5.3-2.5c1.2-1.7,1.9-4.1,1.9-7.1V40.8
		h9.1V73.9z"/>
	<path class="st7" d="M-198.1,42.5c2.5-1.4,5.4-2.1,8.7-2.1c3.3,0,6.3,0.7,8.9,2c2.6,1.3,4.6,3.2,6,5.5c1.4,2.4,2.2,5.2,2.2,8.4
		c0,1.2-0.1,2.2-0.3,3.1h-24v0.3c0.2,2.4,1,4.3,2.3,5.7c1.3,1.4,3.2,2.1,5.5,2.1c1.8,0,3.4-0.4,4.6-1.2c1.2-0.8,2-2,2.4-3.5h9
		c-0.3,2.2-1.2,4.2-2.5,5.9c-1.3,1.8-3.1,3.1-5.3,4.2c-2.2,1-4.7,1.5-7.5,1.5c-3.7,0-6.9-0.7-9.6-2.1c-2.7-1.4-4.7-3.3-6.2-5.9
		c-1.4-2.6-2.2-5.5-2.2-8.9c0-3.4,0.7-6.4,2.1-9C-202.5,45.8-200.6,43.9-198.1,42.5 M-183.8,48.8c-1.4-1.1-3.1-1.6-5.1-1.6
		c-2,0-3.6,0.6-5,1.7c-1.4,1.1-2.2,2.7-2.4,4.6h15C-181.7,51.4-182.5,49.9-183.8,48.8"/>
	<path class="st7" d="M-114.8,55.7v18.2h-9.1V55.4c0-5-1.9-7.5-5.7-7.5c-2,0-3.6,0.7-4.8,2.1c-1.2,1.4-1.8,3.3-1.8,5.8v18.2h-9.1
		V55.4c0-5-1.9-7.5-5.8-7.5c-2,0-3.6,0.7-4.7,2.2c-1.2,1.4-1.8,3.4-1.8,5.8v18.1h-9.1V40.8h7.9l0.8,4.1c1.1-1.4,2.4-2.5,4-3.3
		c1.5-0.8,3.5-1.2,5.8-1.2c4.7,0,8,1.9,9.9,5.6c1.2-1.8,2.8-3.2,4.7-4.2c2-1,4.2-1.4,6.7-1.4c3.6,0,6.5,1.2,8.7,3.5
		C-116,46.3-114.8,50.2-114.8,55.7"/>
	<path class="st7" d="M-370.6,125.6l-54.3,6.9c-16.3,2.1-31.2-9.5-33.2-25.8l-5.2-40.7c-2.1-16.3,9.5-31.2,25.8-33.2l54.3-6.9
		c16.3-2.1,31.2,9.5,33.2,25.8l5.2,40.7C-342.8,108.6-354.3,123.5-370.6,125.6"/>
	<path class="st5" d="M-389.9,69.9l-18.2,31.4c-3.3,5.6-11.1,6.3-15.3,1.3l-20.2-24.3c-1.6-1.9-0.4-4.9,2.1-5.1l11.2-1.1l13.7,16.8
		l18.1-32.1l27.4-2.6c3.4-0.3,6.4,2.2,6.8,5.6l0.1,1.1L-389.9,69.9z"/>
	<polygon class="st6" points="-383.3,104.5 -402.6,106.4 -398.2,97.8 -386.7,77.6 -363.9,68.7 -370.2,86.6 -384.9,88 	"/>
	<polygon class="st4" points="196.6,83.6 196.6,92 176.5,92 176.5,102.5 193,102.5 193,110.4 176.5,110.4 176.5,128.7 166.9,128.7 
		166.9,83.6 	"/>
	<path class="st4" d="M211.5,86.9c0,1.5-0.5,2.7-1.5,3.7c-1,1-2.2,1.5-3.7,1.5c-1.5,0-2.8-0.5-3.8-1.5c-1-1-1.5-2.2-1.5-3.7
		c0-1.5,0.5-2.7,1.5-3.6c1-1,2.3-1.4,3.8-1.4c1.5,0,2.7,0.5,3.7,1.4C211,84.3,211.5,85.5,211.5,86.9 M210.8,128.7h-9.1V95.6h9.1
		V128.7z"/>
	<path class="st4" d="M249.2,110.8v18h-9.1v-17.5c0-5.7-2.2-8.6-6.7-8.6c-2.4,0-4.2,0.8-5.5,2.4c-1.3,1.6-1.9,3.8-1.9,6.7v16.9H217
		V95.6h7.9l0.8,4.1c1.2-1.4,2.6-2.5,4.2-3.3c1.6-0.8,3.6-1.2,6.1-1.2c3.9,0,7,1.2,9.5,3.6C248,101.2,249.2,105.2,249.2,110.8"/>
	<path class="st4" d="M288.1,128.7h-4.6c-4.2,0-6.2-1.8-6.1-5.4c-1.2,1.9-2.7,3.3-4.4,4.3c-1.8,1-3.9,1.5-6.4,1.5
		c-3.7,0-6.7-0.8-8.9-2.5c-2.3-1.7-3.4-4.1-3.4-7.2c0-3.5,1.3-6.2,3.9-8.1c2.6-1.9,6.4-2.9,11.3-2.9h6.6v-1.6c0-1.5-0.6-2.7-1.7-3.6
		c-1.1-0.9-2.6-1.3-4.5-1.3c-1.7,0-3,0.4-4.1,1.1c-1.1,0.7-1.7,1.7-1.9,3H255c0.3-3.4,1.8-6,4.5-7.9c2.7-1.9,6.3-2.8,10.8-2.8
		c4.7,0,8.3,1,10.9,3.1c2.6,2.1,3.8,5,3.8,9v11.7c0,0.8,0.2,1.4,0.5,1.7c0.3,0.3,0.9,0.4,1.6,0.4h1V128.7z M269.3,114.4
		c-1.9,0-3.4,0.4-4.4,1.1c-1.1,0.8-1.6,1.8-1.6,3.2c0,1.2,0.4,2.1,1.3,2.8c0.9,0.7,2.1,1,3.6,1c2.4,0,4.2-0.7,5.6-2
		c1.4-1.4,2.1-3.2,2.1-5.4v-0.6H269.3z"/>
	<path class="st4" d="M325,110.8v18H316v-17.5c0-5.7-2.2-8.6-6.7-8.6c-2.4,0-4.2,0.8-5.5,2.4c-1.3,1.6-1.9,3.8-1.9,6.7v16.9h-9.1
		V95.6h7.9l0.8,4.1c1.2-1.4,2.6-2.5,4.2-3.3c1.6-0.8,3.6-1.2,6.1-1.2c3.9,0,7,1.2,9.5,3.6C323.8,101.2,325,105.2,325,110.8"/>
	<path class="st4" d="M346.4,129.1c-3.4,0-6.4-0.7-9-2.1c-2.6-1.4-4.6-3.4-6-6c-1.4-2.6-2.1-5.5-2.1-8.9c0-3.4,0.7-6.4,2.1-8.9
		c1.4-2.6,3.4-4.5,6-5.9c2.6-1.4,5.6-2.1,9-2.1c4.4,0,8,1.1,10.8,3.4c2.8,2.3,4.5,5.4,5.2,9.4H353c-0.4-1.6-1.2-2.9-2.3-3.9
		s-2.6-1.4-4.3-1.4c-2.4,0-4.3,0.9-5.7,2.6c-1.4,1.8-2.1,4.1-2.1,6.9s0.7,5.1,2.1,6.9c1.4,1.8,3.3,2.6,5.7,2.6
		c1.8,0,3.2-0.5,4.4-1.5c1.2-1,1.9-2.3,2.3-4.1h9.3c-0.6,4-2.3,7.2-5.1,9.5C354.5,128,350.9,129.1,346.4,129.1"/>
	<path class="st4" d="M374.7,97.3c2.5-1.4,5.4-2.1,8.7-2.1c3.3,0,6.3,0.7,8.9,2c2.6,1.3,4.6,3.2,6,5.5c1.4,2.4,2.2,5.2,2.2,8.4
		c0,1.2-0.1,2.2-0.3,3.1h-24v0.3c0.2,2.4,1,4.3,2.3,5.7c1.3,1.4,3.2,2.1,5.5,2.1c1.8,0,3.4-0.4,4.6-1.2c1.2-0.8,2-2,2.4-3.5h9
		c-0.3,2.2-1.2,4.2-2.5,5.9c-1.3,1.8-3.1,3.1-5.3,4.2c-2.2,1-4.7,1.5-7.5,1.5c-3.7,0-6.9-0.7-9.6-2.1c-2.7-1.4-4.7-3.3-6.2-5.9
		c-1.4-2.6-2.2-5.5-2.2-8.9c0-3.4,0.7-6.4,2.1-9C370.3,100.7,372.2,98.7,374.7,97.3 M389,103.6c-1.4-1.1-3.1-1.6-5.1-1.6
		c-2,0-3.6,0.6-5,1.7c-1.4,1.1-2.2,2.7-2.4,4.6h15C391.1,106.3,390.3,104.7,389,103.6"/>
	<polygon class="st4" points="173,28.8 183.9,62.1 194.9,28.8 204.9,28.8 189.7,73.9 178.1,73.9 162.8,28.8 	"/>
	<path class="st4" d="M236.9,73.9h-4.6c-4.2,0-6.2-1.8-6.1-5.4c-1.2,1.9-2.7,3.3-4.4,4.3c-1.8,1-3.9,1.5-6.4,1.5
		c-3.7,0-6.7-0.8-8.9-2.5c-2.3-1.7-3.4-4.1-3.4-7.2c0-3.5,1.3-6.2,3.9-8.1c2.6-1.9,6.4-2.9,11.3-2.9h6.6v-1.6c0-1.5-0.6-2.7-1.7-3.6
		c-1.1-0.9-2.6-1.3-4.5-1.3c-1.7,0-3,0.4-4.1,1.1c-1.1,0.7-1.7,1.7-1.9,3h-8.8c0.3-3.4,1.8-6,4.5-7.9c2.7-1.9,6.3-2.8,10.8-2.8
		c4.7,0,8.3,1,10.9,3.1c2.6,2.1,3.8,5,3.8,9v11.7c0,0.8,0.2,1.4,0.5,1.7c0.3,0.3,0.9,0.4,1.6,0.4h1V73.9z M218.2,59.6
		c-1.9,0-3.4,0.4-4.4,1.1c-1.1,0.8-1.6,1.8-1.6,3.2c0,1.2,0.4,2.1,1.3,2.8c0.9,0.7,2.1,1,3.6,1c2.4,0,4.2-0.7,5.6-2
		c1.4-1.4,2.1-3.2,2.1-5.4v-0.6H218.2z"/>
	<rect x="241.8" y="28.8" class="st4" width="9.1" height="45.1"/>
	<path class="st4" d="M288.3,73.9h-8.1l-0.8-4c-1.2,1.4-2.5,2.4-4.1,3.2c-1.5,0.8-3.4,1.2-5.7,1.2c-3.9,0-7-1.2-9.5-3.6
		c-2.4-2.4-3.7-6.4-3.7-11.9v-18h9.1v16.9c0,3,0.5,5.3,1.6,6.8s2.7,2.3,4.9,2.3c2.3,0,4-0.8,5.3-2.5c1.2-1.7,1.9-4.1,1.9-7.1V40.8
		h9.1V73.9z"/>
	<path class="st4" d="M301.9,42.5c2.5-1.4,5.4-2.1,8.7-2.1c3.3,0,6.3,0.7,8.9,2c2.6,1.3,4.6,3.2,6,5.5c1.4,2.4,2.2,5.2,2.2,8.4
		c0,1.2-0.1,2.2-0.3,3.1h-24v0.3c0.2,2.4,1,4.3,2.3,5.7c1.3,1.4,3.2,2.1,5.5,2.1c1.8,0,3.4-0.4,4.6-1.2c1.2-0.8,2-2,2.4-3.5h9
		c-0.3,2.2-1.2,4.2-2.5,5.9c-1.3,1.8-3.1,3.1-5.3,4.2c-2.2,1-4.7,1.5-7.5,1.5c-3.7,0-6.9-0.7-9.6-2.1c-2.7-1.4-4.7-3.3-6.2-5.9
		c-1.4-2.6-2.2-5.5-2.2-8.9c0-3.4,0.7-6.4,2.1-9C297.5,45.8,299.4,43.9,301.9,42.5 M316.2,48.8c-1.4-1.1-3.1-1.6-5.1-1.6
		c-2,0-3.6,0.6-5,1.7c-1.4,1.1-2.2,2.7-2.4,4.6h15C318.3,51.4,317.5,49.9,316.2,48.8"/>
	<path class="st4" d="M385.2,55.7v18.2h-9.1V55.4c0-5-1.9-7.5-5.7-7.5c-2,0-3.6,0.7-4.8,2.1c-1.2,1.4-1.8,3.3-1.8,5.8v18.2h-9.1
		V55.4c0-5-1.9-7.5-5.8-7.5c-2,0-3.6,0.7-4.7,2.2c-1.2,1.4-1.8,3.4-1.8,5.8v18.1h-9.1V40.8h7.9l0.8,4.1c1.1-1.4,2.4-2.5,4-3.3
		c1.5-0.8,3.5-1.2,5.8-1.2c4.7,0,8,1.9,9.9,5.6c1.2-1.8,2.8-3.2,4.7-4.2c2-1,4.2-1.4,6.7-1.4c3.6,0,6.5,1.2,8.7,3.5
		C384,46.3,385.2,50.2,385.2,55.7"/>
	<path class="st4" d="M129.4,125.6l-54.3,6.9c-16.3,2.1-31.2-9.5-33.2-25.8L36.6,66c-2.1-16.3,9.5-31.2,25.8-33.2l54.3-6.9
		c16.3-2.1,31.2,9.5,33.2,25.8l5.2,40.7C157.2,108.6,145.7,123.5,129.4,125.6"/>
	<path class="st5" d="M110.1,69.9l-18.2,31.4c-3.3,5.6-11.1,6.3-15.3,1.3L56.5,78.3c-1.6-1.9-0.4-4.9,2.1-5.1l11.2-1.1l13.7,16.8
		l18.1-32.1l27.4-2.6c3.4-0.3,6.4,2.2,6.8,5.6l0.1,1.1L110.1,69.9z"/>
	<polygon class="st6" points="116.7,104.5 97.4,106.4 101.8,97.8 113.3,77.6 136.1,68.7 129.8,86.6 115.1,88 	"/>
	<polygon class="st4" points="696.6,83.6 696.6,92 676.5,92 676.5,102.5 693,102.5 693,110.4 676.5,110.4 676.5,128.7 666.9,128.7 
		666.9,83.6 	"/>
	<path class="st4" d="M711.5,86.9c0,1.5-0.5,2.7-1.5,3.7c-1,1-2.2,1.5-3.7,1.5c-1.5,0-2.8-0.5-3.8-1.5c-1-1-1.5-2.2-1.5-3.7
		c0-1.5,0.5-2.7,1.5-3.6c1-1,2.3-1.4,3.8-1.4c1.5,0,2.7,0.5,3.7,1.4C711,84.3,711.5,85.5,711.5,86.9 M710.8,128.7h-9.1V95.6h9.1
		V128.7z"/>
	<path class="st4" d="M749.2,110.8v18h-9.1v-17.5c0-5.7-2.2-8.6-6.7-8.6c-2.4,0-4.2,0.8-5.5,2.4c-1.3,1.6-1.9,3.8-1.9,6.7v16.9H717
		V95.6h7.9l0.8,4.1c1.2-1.4,2.6-2.5,4.2-3.3c1.6-0.8,3.6-1.2,6.1-1.2c3.9,0,7,1.2,9.5,3.6C748,101.2,749.2,105.2,749.2,110.8"/>
	<path class="st4" d="M788.1,128.7h-4.6c-4.2,0-6.2-1.8-6.1-5.4c-1.2,1.9-2.7,3.3-4.4,4.3c-1.8,1-3.9,1.5-6.4,1.5
		c-3.7,0-6.7-0.8-8.9-2.5c-2.3-1.7-3.4-4.1-3.4-7.2c0-3.5,1.3-6.2,3.9-8.1c2.6-1.9,6.4-2.9,11.3-2.9h6.6v-1.6c0-1.5-0.6-2.7-1.7-3.6
		c-1.1-0.9-2.6-1.3-4.5-1.3c-1.7,0-3,0.4-4.1,1.1c-1.1,0.7-1.7,1.7-1.9,3H755c0.3-3.4,1.8-6,4.5-7.9c2.7-1.9,6.3-2.8,10.8-2.8
		c4.7,0,8.3,1,10.9,3.1c2.6,2.1,3.8,5,3.8,9v11.7c0,0.8,0.2,1.4,0.5,1.7c0.3,0.3,0.9,0.4,1.6,0.4h1V128.7z M769.3,114.4
		c-1.9,0-3.4,0.4-4.4,1.1c-1.1,0.8-1.6,1.8-1.6,3.2c0,1.2,0.4,2.1,1.3,2.8c0.9,0.7,2.1,1,3.6,1c2.4,0,4.2-0.7,5.6-2
		c1.4-1.4,2.1-3.2,2.1-5.4v-0.6H769.3z"/>
	<path class="st4" d="M825,110.8v18H816v-17.5c0-5.7-2.2-8.6-6.7-8.6c-2.4,0-4.2,0.8-5.5,2.4c-1.3,1.6-1.9,3.8-1.9,6.7v16.9h-9.1
		V95.6h7.9l0.8,4.1c1.2-1.4,2.6-2.5,4.2-3.3c1.6-0.8,3.6-1.2,6.1-1.2c3.9,0,7,1.2,9.5,3.6C823.8,101.2,825,105.2,825,110.8"/>
	<path class="st4" d="M846.4,129.1c-3.4,0-6.4-0.7-9-2.1c-2.6-1.4-4.6-3.4-6-6c-1.4-2.6-2.1-5.5-2.1-8.9c0-3.4,0.7-6.4,2.1-8.9
		c1.4-2.6,3.4-4.5,6-5.9c2.6-1.4,5.6-2.1,9-2.1c4.4,0,8,1.1,10.8,3.4c2.8,2.3,4.5,5.4,5.2,9.4H853c-0.4-1.6-1.2-2.9-2.3-3.9
		s-2.6-1.4-4.3-1.4c-2.4,0-4.3,0.9-5.7,2.6c-1.4,1.8-2.1,4.1-2.1,6.9s0.7,5.1,2.1,6.9c1.4,1.8,3.3,2.6,5.7,2.6
		c1.8,0,3.2-0.5,4.4-1.5c1.2-1,1.9-2.3,2.3-4.1h9.3c-0.6,4-2.3,7.2-5.1,9.5C854.5,128,850.9,129.1,846.4,129.1"/>
	<path class="st4" d="M874.7,97.3c2.5-1.4,5.4-2.1,8.7-2.1c3.3,0,6.3,0.7,8.9,2c2.6,1.3,4.6,3.2,6,5.5c1.4,2.4,2.2,5.2,2.2,8.4
		c0,1.2-0.1,2.2-0.3,3.1h-24v0.3c0.2,2.4,1,4.3,2.3,5.7c1.3,1.4,3.2,2.1,5.5,2.1c1.8,0,3.4-0.4,4.6-1.2c1.2-0.8,2-2,2.4-3.5h9
		c-0.3,2.2-1.2,4.2-2.5,5.9c-1.3,1.8-3.1,3.1-5.3,4.2c-2.2,1-4.7,1.5-7.5,1.5c-3.7,0-6.9-0.7-9.6-2.1c-2.7-1.4-4.7-3.3-6.2-5.9
		c-1.4-2.6-2.2-5.5-2.2-8.9c0-3.4,0.7-6.4,2.1-9C870.3,100.7,872.2,98.7,874.7,97.3 M889,103.6c-1.4-1.1-3.1-1.6-5.1-1.6
		c-2,0-3.6,0.6-5,1.7c-1.4,1.1-2.2,2.7-2.4,4.6h15C891.1,106.3,890.3,104.7,889,103.6"/>
	<polygon class="st4" points="673,28.8 683.9,62.1 694.9,28.8 704.9,28.8 689.7,73.9 678.1,73.9 662.8,28.8 	"/>
	<path class="st4" d="M736.9,73.9h-4.6c-4.2,0-6.2-1.8-6.1-5.4c-1.2,1.9-2.7,3.3-4.4,4.3c-1.8,1-3.9,1.5-6.4,1.5
		c-3.7,0-6.7-0.8-8.9-2.5c-2.3-1.7-3.4-4.1-3.4-7.2c0-3.5,1.3-6.2,3.9-8.1c2.6-1.9,6.4-2.9,11.3-2.9h6.6v-1.6c0-1.5-0.6-2.7-1.7-3.6
		c-1.1-0.9-2.6-1.3-4.5-1.3c-1.7,0-3,0.4-4.1,1.1c-1.1,0.7-1.7,1.7-1.9,3h-8.8c0.3-3.4,1.8-6,4.5-7.9c2.7-1.9,6.3-2.8,10.8-2.8
		c4.7,0,8.3,1,10.9,3.1c2.6,2.1,3.8,5,3.8,9v11.7c0,0.8,0.2,1.4,0.5,1.7c0.3,0.3,0.9,0.4,1.6,0.4h1V73.9z M718.2,59.6
		c-1.9,0-3.4,0.4-4.4,1.1c-1.1,0.8-1.6,1.8-1.6,3.2c0,1.2,0.4,2.1,1.3,2.8c0.9,0.7,2.1,1,3.6,1c2.4,0,4.2-0.7,5.6-2
		c1.4-1.4,2.1-3.2,2.1-5.4v-0.6H718.2z"/>
	<rect x="741.8" y="28.8" class="st4" width="9.1" height="45.1"/>
	<path class="st4" d="M788.3,73.9h-8.1l-0.8-4c-1.2,1.4-2.5,2.4-4.1,3.2c-1.5,0.8-3.4,1.2-5.7,1.2c-3.9,0-7-1.2-9.5-3.6
		c-2.4-2.4-3.7-6.4-3.7-11.9v-18h9.1v16.9c0,3,0.5,5.3,1.6,6.8s2.7,2.3,4.9,2.3c2.3,0,4-0.8,5.3-2.5c1.2-1.7,1.9-4.1,1.9-7.1V40.8
		h9.1V73.9z"/>
	<path class="st4" d="M801.9,42.5c2.5-1.4,5.4-2.1,8.7-2.1c3.3,0,6.3,0.7,8.9,2c2.6,1.3,4.6,3.2,6,5.5c1.4,2.4,2.2,5.2,2.2,8.4
		c0,1.2-0.1,2.2-0.3,3.1h-24v0.3c0.2,2.4,1,4.3,2.3,5.7c1.3,1.4,3.2,2.1,5.5,2.1c1.8,0,3.4-0.4,4.6-1.2c1.2-0.8,2-2,2.4-3.5h9
		c-0.3,2.2-1.2,4.2-2.5,5.9c-1.3,1.8-3.1,3.1-5.3,4.2c-2.2,1-4.7,1.5-7.5,1.5c-3.7,0-6.9-0.7-9.6-2.1c-2.7-1.4-4.7-3.3-6.2-5.9
		c-1.4-2.6-2.2-5.5-2.2-8.9c0-3.4,0.7-6.4,2.1-9C797.5,45.8,799.4,43.9,801.9,42.5 M816.2,48.8c-1.4-1.1-3.1-1.6-5.1-1.6
		c-2,0-3.6,0.6-5,1.7c-1.4,1.1-2.2,2.7-2.4,4.6h15C818.3,51.4,817.5,49.9,816.2,48.8"/>
	<path class="st4" d="M885.2,55.7v18.2h-9.1V55.4c0-5-1.9-7.5-5.7-7.5c-2,0-3.6,0.7-4.8,2.1c-1.2,1.4-1.8,3.3-1.8,5.8v18.2h-9.1
		V55.4c0-5-1.9-7.5-5.8-7.5c-2,0-3.6,0.7-4.7,2.2c-1.2,1.4-1.8,3.4-1.8,5.8v18.1h-9.1V40.8h7.9l0.8,4.1c1.1-1.4,2.4-2.5,4-3.3
		c1.5-0.8,3.5-1.2,5.8-1.2c4.7,0,8,1.9,9.9,5.6c1.2-1.8,2.8-3.2,4.7-4.2c2-1,4.2-1.4,6.7-1.4c3.6,0,6.5,1.2,8.7,3.5
		C884,46.3,885.2,50.2,885.2,55.7"/>
	<path class="st4" d="M629.4,125.6l-54.3,6.9c-16.3,2.1-31.2-9.5-33.2-25.8L536.6,66c-2.1-16.3,9.5-31.2,25.8-33.2l54.3-6.9
		c16.3-2.1,31.2,9.5,33.2,25.8l5.2,40.7C657.2,108.6,645.7,123.5,629.4,125.6"/>
	<path class="st5" d="M610.1,69.9l-18.2,31.4c-3.3,5.6-11.1,6.3-15.3,1.3l-20.2-24.3c-1.6-1.9-0.4-4.9,2.1-5.1l11.2-1.1l13.7,16.8
		l18.1-32.1l27.4-2.6c3.4-0.3,6.4,2.2,6.8,5.6l0.1,1.1L610.1,69.9z"/>
	<polygon class="st6" points="616.7,104.5 597.4,106.4 601.8,97.8 613.3,77.6 636.1,68.7 629.8,86.6 615.1,88 	"/>
</g>
</svg>
